<svg width="40" height="40" xmlns="http://www.w3.org/2000/svg">

 <g>
  <title>background</title>
  <rect fill="#ffaa56" id="canvas_background" height="42" width="42" y="-1" x="-1"/>
 </g>
 <g>
  <title>Layer 1</title>
  <path fill="#0C372C" stroke="null" id="svg_1" d="m33.788748,7.296528c-3.683037,-3.415467 -8.580067,-5.296485 -13.788628,-5.296485s-10.105591,1.881018 -13.788628,5.296485c-3.683037,3.415467 -5.711416,7.95673 -5.711416,12.786893s2.028379,9.371426 5.711416,12.786893c3.683037,3.415467 8.580067,5.296485 13.788628,5.296485s10.105591,-1.881018 13.788628,-5.296485c3.683037,-3.415467 5.711416,-7.95673 5.711416,-12.786893s-2.028379,-9.371426 -5.711416,-12.786893zm-2.95851,16.346948c0,0.515162 -0.451974,0.934024 -1.007495,0.934024c-0.555223,0 -1.007196,-0.418862 -1.007196,-0.934024c0,-0.515162 0.451974,-0.934025 1.007197,-0.934025c0.55552,0 1.007494,0.418863 1.007494,0.934025zm-21.660237,-7.12011c0,-0.515162 0.451974,-0.934024 1.007494,-0.934024c0.555223,0 1.007197,0.418862 1.007197,0.934024c0,0.515162 -0.451974,0.934025 -1.007197,0.934025c-0.55552,0 -1.007494,-0.419138 -1.007494,-0.934025zm24.006692,13.821357l0,-2.15143c0,-0.585248 -0.511781,-1.059573 -1.142581,-1.059573c-0.631097,0 -1.142581,0.474325 -1.142581,1.059573l0,4.243535c-0.444238,0.337463 -0.906923,0.654231 -1.386271,0.949752l0,-3.780523c0,-0.584973 -0.511484,-1.059573 -1.142581,-1.059573c-0.6308,0 -1.142581,0.4746 -1.142581,1.059573l0,4.967576c-0.781954,0.336359 -1.59515,0.620292 -2.435125,0.846003l0,-18.341373l2.946906,0c0.393952,1.277282 1.663288,2.21517 3.165305,2.21517c1.815632,0 3.292359,-1.369443 3.292359,-3.053171c0,-1.683452 -1.476726,-3.053171 -3.292359,-3.053171c-1.322002,0 -2.463987,0.726801 -2.987373,1.772026l-4.267419,0c-0.631098,0 -1.142581,0.474324 -1.142581,1.059573l0,19.860095c-0.816469,0.110648 -1.650792,0.16887 -2.499693,0.16887c-9.492347,0 -17.214883,-7.161499 -17.214883,-15.964233c0,-0.850417 0.072899,-1.685659 0.211556,-2.500482l4.09276,0c0.465661,1.162771 1.674,1.993598 3.087646,1.993598c1.815632,0 3.292358,-1.369719 3.292358,-3.053171c0,-1.683452 -1.476725,-3.05317 -3.292358,-3.05317c-1.413647,0 -2.621985,0.830826 -3.087646,1.993597l-3.568481,0c0.68406,-2.09376 1.820095,-4.006786 3.302474,-5.641674l0,1.356474c0,0.584973 0.511484,1.059573 1.142581,1.059573s1.142581,-0.4746 1.142581,-1.059573l0,-3.448855c0.444238,-0.337187 0.906923,-0.653955 1.385975,-0.949477l0,2.985292c0,0.585249 0.511781,1.059573 1.142581,1.059573c0.631097,0 1.142581,-0.474324 1.142581,-1.059573l0,-4.172344c0.699831,-0.30104 1.424358,-0.560139 2.170606,-0.772881l0,18.589711l-2.760046,0c-0.465364,-1.162771 -1.673703,-1.993598 -3.087646,-1.993598c-1.815335,0 -3.292359,1.369719 -3.292359,3.053171c0,1.683728 1.477024,3.053171 3.292359,3.053171c1.413944,0 2.622282,-0.830827 3.087646,-1.993598l3.902627,0c0.631098,0 1.142581,-0.474324 1.142581,-1.059573l0,-20.143475c0.900377,-0.135482 1.823666,-0.206948 2.76451,-0.206948c9.492347,0 17.214883,7.161499 17.214883,15.964233c0,0.850417 -0.072899,1.685659 -0.211556,2.500482l-4.09276,0c-0.465661,-1.162771 -1.674,-1.993598 -3.087646,-1.993598c-1.815632,0 -3.292359,1.369719 -3.292359,3.053171c0,1.683452 1.476726,3.05317 3.292359,3.05317c1.413646,0 2.621985,-0.830826 3.087646,-1.993597l3.568481,0c-0.684061,2.09376 -1.820095,4.007062 -3.302475,5.641674l0,0.000001zm-2.279508,-15.038487c0.55552,0 1.007495,0.419139 1.007495,0.934025c0,0.515162 -0.451974,0.934025 -1.007495,0.934025c-0.555223,0 -1.007196,-0.418863 -1.007196,-0.934025c0,-0.514886 0.451974,-0.934025 1.007196,-0.934025zm-20.786935,9.163375c0,0.515162 -0.451974,0.934025 -1.007196,0.934025c-0.55552,0 -1.007495,-0.418863 -1.007495,-0.934025c0,-0.514886 0.451974,-0.934025 1.007495,-0.934025c0.555223,0 1.007196,0.419139 1.007196,0.934025zm0,0"/>
  <path fill="#153723" stroke="null" id="svg_2" d="m24.843458,7.670668c-1.435845,0 -2.60391,1.235461 -2.60391,2.754458c0,0.323366 0.053415,0.633538 0.150597,0.922053l-2.892632,2.555809c-0.205423,0.181473 -0.324253,0.450323 -0.324253,0.73361l0,12.13107l-1.240069,0.708716c-0.458849,-0.426923 -1.059588,-0.686561 -1.717272,-0.686561c-1.435609,0 -2.603675,1.235461 -2.603675,2.754459c0,1.518749 1.168065,2.754458 2.603675,2.754458c1.435845,0 2.603675,-1.23571 2.603675,-2.754458c0,-0.131437 -0.009177,-0.260386 -0.026119,-0.386595l1.712802,-0.979059c0.292251,-0.166786 0.474144,-0.489903 0.474144,-0.8409l0,-12.254044l2.569085,-2.269783c0.381433,0.232007 0.823105,0.365685 1.293955,0.365685c1.435609,0 2.603674,-1.235711 2.603674,-2.754459c-0.000235,-1.518998 -1.168065,-2.754458 -2.603674,-2.754458zm-9.424055,21.873614c0,-0.464761 0.357432,-0.842643 0.796515,-0.842643c0.439319,0 0.796515,0.377883 0.796515,0.842643c0,0.464511 -0.357197,0.842642 -0.796515,0.842642c-0.439083,0 -0.796515,-0.378131 -0.796515,-0.842642zm8.627304,-19.119156c0,-0.464761 0.357432,-0.842642 0.796751,-0.842642c0.439083,0 0.796515,0.377882 0.796515,0.842642c0,0.464512 -0.357431,0.842643 -0.796515,0.842643c-0.439319,0 -0.796751,-0.378131 -0.796751,-0.842643zm0,0"/>
 </g>
</svg>